<?xml version="1.0" encoding="utf-8"?>
<!-- Generator: Adobe Illustrator 16.0.0, SVG Export Plug-In . SVG Version: 6.00 Build 0)  -->
<!DOCTYPE svg PUBLIC "-//W3C//DTD SVG 1.1//EN" "http://www.w3.org/Graphics/SVG/1.1/DTD/svg11.dtd">
<svg version="1.1" id="Layer_1" xmlns="http://www.w3.org/2000/svg" xmlns:xlink="http://www.w3.org/1999/xlink" x="0px" y="0px"
	 width="40px" height="40px" viewBox="0 0 40 40" enable-background="new 0 0 40 40" xml:space="preserve">
<g>
	<rect x="14" y="4" width="8" height="2"/>
	<rect x="11" y="12" width="11" height="2"/>
	<rect x="11" y="16" width="11" height="2"/>
	<rect x="11" y="20" width="11" height="2"/>
	<rect x="11" y="24" width="11" height="2"/>
	<rect x="17" width="4" height="2"/>
	<path d="M34,14v-3h-2v3h-3v13h-3V8H7v22H0v10h14h2h18h2h4V14H34z M14,27v1h-3v2h3v8H2v-6h5h2v-2V10h15v17h-8H14z M34,38H16v-9h10h3
		h5V38z M38,38h-2v-9v-2h-2h-3V16h7V38z"/>
	<rect x="18" y="31" width="2" height="3"/>
	<rect x="22" y="31" width="2" height="3"/>
	<rect x="26" y="31" width="2" height="3"/>
	<rect x="30" y="31" width="2" height="3"/>
</g>
</svg>
