<?xml version="1.0" encoding="utf-8"?>
<!-- Generator: Adobe Illustrator 16.0.0, SVG Export Plug-In . SVG Version: 6.00 Build 0)  -->
<!DOCTYPE svg PUBLIC "-//W3C//DTD SVG 1.1//EN" "http://www.w3.org/Graphics/SVG/1.1/DTD/svg11.dtd">
<svg version="1.1" id="Layer_1" xmlns="http://www.w3.org/2000/svg" xmlns:xlink="http://www.w3.org/1999/xlink" x="0px" y="0px"
	 width="40px" height="40px" viewBox="0 0 40 40" enable-background="new 0 0 40 40" xml:space="preserve">
<rect x="9.345" y="24.457" transform="matrix(0.8061 -0.5918 0.5918 0.8061 -13.3899 11.1662)" width="2" height="3.12"/>
<rect x="5.094" y="19.984" transform="matrix(-0.5912 -0.8065 0.8065 -0.5912 -6.3353 38.7566)" width="3.12" height="2"/>
<rect x="22.018" y="12.89" transform="matrix(-0.8778 -0.479 0.479 -0.8778 36.2964 38.1903)" width="2" height="3.152"/>
<rect x="15.983" y="23.957" transform="matrix(-0.878 -0.4786 0.4786 -0.878 19.6743 56.079)" width="2" height="3.151"/>
<rect x="19.001" y="18.424" transform="matrix(-0.878 -0.4786 0.4786 -0.878 27.9904 47.1322)" width="2" height="3.151"/>
<rect x="29.986" y="10.501" transform="matrix(-0.9103 -0.4139 0.4139 -0.9103 55.4157 35.0069)" width="3.027" height="2"/>
<path d="M3,13c-1.657,0-3,1.343-3,3s1.343,3,3,3s3-1.343,3-3S4.657,13,3,13z M3,15c0.33,0,0.609,0.172,0.792,0.419
	C3.914,15.585,4,15.779,4,16c0,0.551-0.449,1-1,1c-0.33,0-0.609-0.172-0.792-0.419C2.086,16.415,2,16.221,2,16
	C2,15.449,2.449,15,3,15z"/>
<path d="M14,28c-1.657,0-3,1.343-3,3s1.343,3,3,3s3-1.343,3-3S15.657,28,14,28z M14,30c0.551,0,1,0.448,1,1s-0.449,1-1,1
	s-1-0.448-1-1S13.449,30,14,30z"/>
<path d="M37,11c-1.657,0-3,1.343-3,3s1.343,3,3,3s3-1.343,3-3S38.657,11,37,11z M37,15c-0.147,0-0.285-0.037-0.412-0.094
	C36.243,14.748,36,14.403,36,14c0-0.551,0.448-1,1-1c0.147,0,0.285,0.037,0.412,0.094C37.757,13.252,38,13.597,38,14
	C38,14.551,37.552,15,37,15z"/>
<path d="M26,6c-1.657,0-3,1.343-3,3s1.343,3,3,3s3-1.343,3-3S27.657,6,26,6z M26,10c-0.552,0-1-0.449-1-1s0.448-1,1-1s1,0.449,1,1
	S26.552,10,26,10z"/>
</svg>
