<?xml version="1.0" encoding="utf-8"?>
<!-- Generator: Adobe Illustrator 16.0.0, SVG Export Plug-In . SVG Version: 6.00 Build 0)  -->
<!DOCTYPE svg PUBLIC "-//W3C//DTD SVG 1.1//EN" "http://www.w3.org/Graphics/SVG/1.1/DTD/svg11.dtd">
<svg version="1.1" id="Layer_1" xmlns="http://www.w3.org/2000/svg" xmlns:xlink="http://www.w3.org/1999/xlink" x="0px" y="0px"
	 width="60px" height="60px" viewBox="0 0 60 60" enable-background="new 0 0 60 60" xml:space="preserve">
<g>
	<path d="M30,22c9.925,0,18,8.075,18,18s-8.075,18-18,18s-18-8.075-18-18S20.075,22,30,22 M30,20c-11.048,0-20,8.952-20,20
		s8.952,20,20,20s20-8.952,20-20S41.048,20,30,20L30,20z"/>
</g>
<g>
	<path d="M30,26c7.721,0,14,6.279,14,14s-6.279,14-14,14c-7.72,0-14-6.279-14-14S22.28,26,30,26 M30,24c-8.837,0-16,7.163-16,16
		s7.163,16,16,16s16-7.163,16-16S38.837,24,30,24L30,24z"/>
</g>
<g>
	<path d="M30,34.779l1.221,2.056l0.438,0.741l0.842,0.189l2.33,0.523l-1.577,1.794l-0.568,0.647l0.08,0.857l0.221,2.379
		l-2.193-0.945L30,42.682l-0.792,0.342l-2.194,0.945l0.222-2.379l0.08-0.857l-0.569-0.647l-1.578-1.794l2.331-0.523l0.842-0.189
		l0.44-0.741L30,34.779 M30,30.859l-2.939,4.955l-5.621,1.264l3.804,4.326l-0.535,5.736L30,44.859l5.29,2.281l-0.534-5.736
		l3.805-4.326l-5.621-1.264L30,30.859L30,30.859z"/>
</g>
<polygon fill="none" points="33.941,0 26.058,0 30,11.432 "/>
<g>
	<polygon points="14,0 12.942,0 21.057,23.534 22.002,23.208 22.948,22.881 15.058,0 	"/>
	<polygon points="46,0 44.941,0 37.052,22.881 37.997,23.208 38.941,23.534 47.059,0 	"/>
	<polygon points="35,0 33.941,0 30,11.432 26.058,0 25,0 23.942,0 31.336,21.44 32.281,21.114 33.227,20.788 31.059,14.5 36.059,0 	
		"/>
</g>
</svg>
