<?xml version="1.0" encoding="utf-8"?>
<!-- Generator: Adobe Illustrator 16.0.0, SVG Export Plug-In . SVG Version: 6.00 Build 0)  -->
<!DOCTYPE svg PUBLIC "-//W3C//DTD SVG 1.1//EN" "http://www.w3.org/Graphics/SVG/1.1/DTD/svg11.dtd">
<svg version="1.1" id="Layer_1" xmlns="http://www.w3.org/2000/svg" xmlns:xlink="http://www.w3.org/1999/xlink" x="0px" y="0px"
	 width="40px" height="40px" viewBox="0 0 40 40" enable-background="new 0 0 40 40" xml:space="preserve">
<g>
	<path fill="#231F20" d="M20,2c1.103,0,2,0.897,2,2s-0.897,2-2,2c-1.103,0-2-0.897-2-2S18.897,2,20,2 M20,0c-2.208,0-4,1.791-4,4
		c0,2.208,1.792,4,4,4c2.209,0,4-1.792,4-4C24,1.791,22.209,0,20,0L20,0z"/>
</g>
<g>
	<path fill="#231F20" d="M33,4c1.103,0,2,0.897,2,2s-0.897,2-2,2s-2-0.897-2-2S31.897,4,33,4 M33,2c-2.209,0-4,1.791-4,4
		c0,2.208,1.791,4,4,4s4-1.792,4-4C37,3.791,35.209,2,33,2L33,2z"/>
</g>
<g>
	<path fill="#231F20" d="M7,4c1.103,0,2,0.897,2,2S8.103,8,7,8S5,7.103,5,6S5.897,4,7,4 M7,2C4.791,2,3,3.791,3,6
		c0,2.208,1.791,4,4,4s4-1.792,4-4C11,3.791,9.209,2,7,2L7,2z"/>
</g>
<g>
	<polygon fill="#231F20" points="39.499,26.038 37.501,25.962 37.961,14 30,14 30,12 40.039,12 	"/>
</g>
<g>
	<polygon fill="#231F20" points="27.499,24.038 25.501,23.962 25.961,12 14.039,12 14.499,23.962 12.501,24.038 11.961,10 
		28.039,10 	"/>
</g>
<g>
	<polygon fill="#231F20" points="0.501,26.038 -0.039,12 10,12 10,14 2.039,14 2.499,25.962 	"/>
</g>
<g>
	
		<rect x="7.987" y="29.5" transform="matrix(0.0526 0.9986 -0.9986 0.0526 47.0381 11.4211)" fill="#231F20" width="19.026" height="2"/>
</g>
<g>
	
		<rect x="21.5" y="20.987" transform="matrix(0.9986 0.0527 -0.0527 0.9986 1.639 -1.1436)" fill="#231F20" width="2.001" height="19.026"/>
</g>
<g>
	<path fill="#231F20" d="M70,2c1.103,0,2,0.897,2,2s-0.897,2-2,2c-1.104,0-2-0.897-2-2S68.896,2,70,2 M70,0c-2.209,0-4,1.791-4,4
		c0,2.208,1.791,4,4,4s4-1.792,4-4C74,1.791,72.209,0,70,0L70,0z"/>
</g>
<g>
	<path fill="#231F20" d="M83,4c1.103,0,2,0.897,2,2s-0.897,2-2,2s-2-0.897-2-2S81.897,4,83,4 M83,2c-2.209,0-4,1.791-4,4
		c0,2.208,1.791,4,4,4s4-1.792,4-4C87,3.791,85.209,2,83,2L83,2z"/>
</g>
<g>
	<path fill="#231F20" d="M57,4c1.104,0,2,0.897,2,2s-0.896,2-2,2s-2-0.897-2-2S55.896,4,57,4 M57,2c-2.209,0-4,1.791-4,4
		c0,2.208,1.791,4,4,4s4-1.792,4-4C61,3.791,59.209,2,57,2L57,2z"/>
</g>
<polyline fill="none" stroke="#231F20" stroke-width="2" stroke-miterlimit="10" points="80,13 89,13 88.5,26 "/>
<polyline fill="none" stroke="#231F20" stroke-width="2" stroke-miterlimit="10" points="63.5,24 63,11 77,11 76.5,24 "/>
<polyline fill="none" stroke="#231F20" stroke-width="2" stroke-miterlimit="10" points="51.5,26 51,13 60,13 "/>
<line fill="none" stroke="#231F20" stroke-width="2" stroke-miterlimit="10" x1="67" y1="21" x2="68" y2="40"/>
<line fill="none" stroke="#231F20" stroke-width="2" stroke-miterlimit="10" x1="73" y1="21" x2="72" y2="40"/>
</svg>
