<?xml version="1.0" encoding="utf-8"?>
<!-- Generator: Adobe Illustrator 16.0.0, SVG Export Plug-In . SVG Version: 6.00 Build 0)  -->
<!DOCTYPE svg PUBLIC "-//W3C//DTD SVG 1.1//EN" "http://www.w3.org/Graphics/SVG/1.1/DTD/svg11.dtd">
<svg version="1.1" id="Layer_1" xmlns="http://www.w3.org/2000/svg" xmlns:xlink="http://www.w3.org/1999/xlink" x="0px" y="0px"
	 width="40px" height="40px" viewBox="0 0 40 40" enable-background="new 0 0 40 40" xml:space="preserve">
<g>
	<path d="M32,20c0-4.438-2.417-8.306-6-10.381V0h-2v1h-8V0h-2v9.619C10.417,11.694,8,15.562,8,20s2.417,8.306,6,10.381V40h2v-1h8v1
		h2v-9.619C29.583,28.306,32,24.438,32,20z M24,3v2h-8V3H24z M16,7h8v1.698C22.747,8.254,21.404,8,20,8
		c-1.405,0-2.747,0.254-4,0.698V7z M16,37v-2h8v2H16z M24,33h-8v-1.697C17.253,31.746,18.595,32,20,32c1.404,0,2.747-0.254,4-0.697
		V33z M20,30c-5.514,0-10-4.486-10-10c0-5.514,4.486-10,10-10c5.514,0,10,4.486,10,10C30,25.514,25.514,30,20,30z"/>
	<polygon points="21,13 19,13 19,20.414 22.293,23.707 23.707,22.293 21,19.586 	"/>
</g>
</svg>
