<?xml version="1.0" encoding="utf-8"?>
<!-- Generator: Adobe Illustrator 16.0.0, SVG Export Plug-In . SVG Version: 6.00 Build 0)  -->
<!DOCTYPE svg PUBLIC "-//W3C//DTD SVG 1.1//EN" "http://www.w3.org/Graphics/SVG/1.1/DTD/svg11.dtd">
<svg version="1.1" id="Layer_1" xmlns="http://www.w3.org/2000/svg" xmlns:xlink="http://www.w3.org/1999/xlink" x="0px" y="0px"
	 width="60px" height="60px" viewBox="0 0 60 60" enable-background="new 0 0 60 60" xml:space="preserve">
<g>
	<path d="M54,43v15H6V43H54 M56,41H4v19h52V41L56,41z"/>
</g>
<g>
	<path d="M57,43H3c-1.654,0-3-1.346-3-3v-4h2v4c0,0.552,0.449,1,1,1h54c0.552,0,1-0.448,1-1v-4h2v4C60,41.654,58.654,43,57,43z"/>
</g>
<g>
	<rect x="14" y="50" width="2" height="2"/>
</g>
<g>
	<rect x="19" y="50" width="2" height="2"/>
</g>
<g>
	<rect x="24" y="50" width="2" height="2"/>
</g>
<g>
	<rect x="34" y="50" width="2" height="2"/>
</g>
<g>
	<rect x="29" y="50" width="2" height="2"/>
</g>
<g>
	<rect x="39" y="50" width="2" height="2"/>
</g>
<g>
	<rect x="44" y="50" width="2" height="2"/>
</g>
<g>
	<polygon points="24,45 30,52 36,45 	"/>
</g>
<g>
	<path d="M48,47c1.103,0,2,0.897,2,2v3c0,1.103-0.897,2-2,2H12c-1.103,0-2-0.897-2-2v-3c0-1.103,0.897-2,2-2H48 M48,45H12
		c-2.209,0-4,1.791-4,4v3c0,2.209,1.791,4,4,4h36c2.209,0,4-1.791,4-4v-3C52,46.791,50.209,45,48,45L48,45z"/>
</g>
<g>
	<path d="M29.56,2.332l2.085,1.294l0.766,0.475l0.863-0.258l1.844-0.552c0.276,0.015,0.562,0.041,0.825,0.072
		c-0.456,1.353-1.037,3.651-1.037,7.985c0,2.217,1.289,4.061,2.653,6.012C39.251,19.777,41,22.277,41,26c0,4.436-3.496,11-11,11
		s-11-6.564-11-11c0-3.723,1.749-6.223,3.44-8.641c1.365-1.951,2.654-3.794,2.654-6.012c0-4.304-0.73-6.782-1.226-8.156l0.464-0.274
		l1.635,0.738l1.652,0.746l0.904-1.571l0.221-0.385L29.56,2.332 M30,0.251L27.499,0.6L26.79,1.833l-2.581-1.166l-2.475,1.461
		c-0.87,0.52,1.36,1.815,1.36,9.219C23.094,15.156,17,18.538,17,26c0,5.159,4.069,13,13,13s13-7.841,13-13
		c0-7.462-6.094-10.844-6.094-14.653c0-7.404,1.767-8.285,1.36-9.219c-0.339-0.78-3.403-0.85-3.403-0.85L32.7,1.926L30,0.251
		L30,0.251z"/>
</g>
<g>
	<rect x="23.091" y="9" width="13.817" height="2"/>
</g>
<g>
	<rect x="23.091" y="12" width="13.817" height="2"/>
</g>
</svg>
