<svg version="1.0" id="Layer_1" xmlns="http://www.w3.org/2000/svg" xmlns:xlink="http://www.w3.org/1999/xlink" x="0px" y="0px" viewBox="0 0 60 60" enable-background="new 0 0 60 60" xml:space="preserve">
<g>
	<path d="M30,22c9.925,0,18,8.075,18,18c0,9.925-8.075,18-18,18c-9.925,0-18-8.075-18-18C12,30.075,20.075,22,30,22 M30,20
		c-11.048,0-20,8.952-20,20s8.952,20,20,20s20-8.952,20-20S41.048,20,30,20L30,20z"/>
</g>
<g>
	<path d="M30,26c7.72,0,14,6.28,14,14s-6.28,14-14,14s-14-6.28-14-14S22.28,26,30,26 M30,24c-8.837,0-16,7.163-16,16s7.163,16,16,16
		s16-7.163,16-16S38.837,24,30,24L30,24z"/>
</g>
<g>
	<path d="M30,34.779l1.22,2.056l0.439,0.741l0.842,0.189l2.33,0.524l-1.577,1.794l-0.569,0.647l0.08,0.858l0.222,2.379l-2.194-0.946
		L30,42.682l-0.792,0.341l-2.194,0.946l0.222-2.379l0.08-0.858l-0.569-0.647l-1.578-1.794l2.331-0.524l0.842-0.189l0.44-0.741
		L30,34.779 M30,30.859l-2.939,4.955l-5.621,1.264l3.804,4.326l-0.535,5.736L30,44.859l5.29,2.281l-0.534-5.736l3.804-4.326
		l-5.62-1.264L30,30.859L30,30.859z"/>
</g>
<polygon fill="none" points="33.942,0 26.058,0 30,11.432 "/>
<polygon points="22.002,23.208 22.948,22.881 15.058,0 14,0 "/>
<polygon points="12.942,0 21.057,23.534 22.002,23.208 14,0 "/>
<polygon points="30.073,14.288 30.073,14.288 30.073,14.288 29.907,14.23 32.281,21.114 33.227,20.788 31.058,14.5 31.019,14.614 
	"/>
<polygon points="29.471,12.965 30,11.432 26.058,0 25,0 "/>
<polygon points="29.127,13.961 29.471,12.965 25,0 23.942,0 31.336,21.44 32.281,21.114 29.907,14.23 "/>
<polygon points="37.997,23.208 38.942,23.534 47.058,0 46,0 "/>
<polygon points="44.942,0 37.052,22.881 37.997,23.208 46,0 "/>
<polygon points="30.529,12.965 31.058,14.5 36.059,0 35,0 "/>
<polygon points="30.529,12.965 35,0 33.942,0 30,11.432 "/>
<polygon points="29.471,12.965 29.907,14.23 30.073,14.288 30.529,12.965 30,11.432 "/>
<polygon points="30.073,14.288 31.019,14.614 31.058,14.5 30.529,12.965 "/>
<polygon points="29.127,13.961 29.907,14.23 29.471,12.965 "/>
</svg>
