<?xml version="1.0" encoding="utf-8"?>
<!-- Generator: Adobe Illustrator 16.0.0, SVG Export Plug-In . SVG Version: 6.00 Build 0)  -->
<!DOCTYPE svg PUBLIC "-//W3C//DTD SVG 1.1//EN" "http://www.w3.org/Graphics/SVG/1.1/DTD/svg11.dtd">
<svg version="1.1" id="Layer_1" xmlns="http://www.w3.org/2000/svg" xmlns:xlink="http://www.w3.org/1999/xlink" x="0px" y="0px"
	 width="40px" height="40px" viewBox="0 0 40 40" enable-background="new 0 0 40 40" xml:space="preserve">
<g>
	<path d="M28.496,15.449c-0.668-0.484-2.572-0.733-2.896-1.848c-0.834-2.864,0.196-5.271,0.196-7.087S25.174,0,20.016,0
		c-5.426,0-6.037,4.89-6.037,7.023c0,2.135,0.835,3.903,0.241,6.578c-0.294,1.32-1.06,0.668-2.681,1.848
		C9.917,16.627,9.581,19,9.581,19h20.838C30.419,19,30.419,16.84,28.496,15.449z M19.866,16.373c-2.677,0-3.896-2.049-3.896-2.049
		s0.418-0.29,0.667-0.562c0.161-0.176,0.468-0.819,0.468-0.819s1.082,1.37,2.762,1.37c1.681,0,2.857-1.37,2.857-1.37
		s0.289,0.553,0.557,0.766c0.268,0.21,0.738,0.508,0.738,0.508S22.542,16.373,19.866,16.373z M24.014,9.5
		c0,0-1.332,4.038-4.174,4.038c-2.841,0-3.917-4.038-3.917-4.038s-0.964,0.119-0.964-1.314c0-0.812,0.625-0.986,0.625-0.986
		s0.033-2.74,1.846-2.74c1.815,0,6.583,3.216,6.583,3.216s0.256-0.557,0.561-0.557c0.306,0,0.402,0.637,0.402,1.1
		C24.979,9.364,24.014,9.5,24.014,9.5z"/>
	<rect x="12" y="38" width="16" height="2"/>
	<path d="M37.564,20.755C37.186,20.278,36.609,20,36,20H4c-0.609,0-1.186,0.278-1.565,0.755c-0.38,0.478-0.521,1.101-0.384,1.695
		l3,13C5.261,36.357,6.069,37,7,37h26c0.932,0,1.738-0.643,1.949-1.55l3-13C38.086,21.855,37.943,21.23,37.564,20.755z M33,35H7
		L4,22h32L33,35z"/>
</g>
</svg>
