<?xml version="1.0" encoding="utf-8"?>
<!-- Generator: Adobe Illustrator 16.0.0, SVG Export Plug-In . SVG Version: 6.00 Build 0)  -->
<!DOCTYPE svg PUBLIC "-//W3C//DTD SVG 1.1//EN" "http://www.w3.org/Graphics/SVG/1.1/DTD/svg11.dtd">
<svg version="1.1" id="Layer_1" xmlns="http://www.w3.org/2000/svg" xmlns:xlink="http://www.w3.org/1999/xlink" x="0px" y="0px"
	 width="173px" height="40px" viewBox="0 0 173 40" enable-background="new 0 0 173 40" xml:space="preserve">
<g>
	<g>
		<defs>
			<circle id="SVGID_1_" cx="15" cy="20" r="15"/>
		</defs>
		<clipPath id="SVGID_2_">
			<use xlink:href="#SVGID_1_"  overflow="visible"/>
		</clipPath>
		<g clip-path="url(#SVGID_2_)">
			<g>
				<circle fill="#C98C1F" cx="15" cy="20" r="15"/>
			</g>
			<polyline fill="#FFFFFF" points="37.5,-123.501 17.5,26.5 67.5,-73.501 			"/>
			<polyline fill="#FFFFFF" points="-7.5,-123.501 12.5,26.5 -37.5,-73.501 			"/>
			<rect x="-36.166" y="26.5" fill="#0D1E28" stroke="#B1BFC2" stroke-miterlimit="10" width="100" height="27"/>
			<g>
				<rect x="13.5" y="13.5" fill="#0D1E28" stroke="#B1BFC2" stroke-miterlimit="10" width="3" height="89.5"/>
				<rect x="16.5" y="17.5" fill="#0D1E28" stroke="#B1BFC2" stroke-miterlimit="10" width="3" height="79.5"/>
				<rect x="19.5" y="21.5" fill="#0D1E28" stroke="#B1BFC2" stroke-miterlimit="10" width="3" height="69.5"/>
				<rect x="10.5" y="17.5" fill="#0D1E28" stroke="#B1BFC2" stroke-miterlimit="10" width="3" height="79.5"/>
				<rect x="7.5" y="21.5" fill="#0D1E28" stroke="#B1BFC2" stroke-miterlimit="10" width="3" height="69.5"/>
			</g>
			<circle fill="none" stroke="#0D1E28" stroke-width="3" stroke-miterlimit="10" cx="15" cy="20" r="15"/>
		</g>
	</g>
</g>
<g>
	<path fill="#0F1F28" d="M170.811,16.308l-1.048,0.674c-0.469-0.814-1.03-1.282-2.029-1.282c-0.203,0-0.398,0.026-0.584,0.08
		c-0.057,0.173-0.648,0.364-0.648,0.563c0,1.018,1.047,2.045,1.844,2.402l0.783,0.347c1.531,0.671,2.828,0.876,2.828,2.753
		c0,1.095,0.092,2.056-0.654,2.713c-0.006,0.005-0.01,0.008-0.014,0.014c-0.01,0.007-0.016,0.015-0.027,0.022
		c-0.002,0.004-0.008,0.009-0.012,0.012c-0.002,0.003-0.008,0.008-0.012,0.012c-0.004,0.003-0.01,0.007-0.014,0.012
		c-0.004,0.002-0.006,0.007-0.014,0.012c-0.002,0.002-0.006,0.009-0.012,0.012c-0.004,0.003-0.008,0.007-0.012,0.01
		c-0.006,0.003-0.008,0.009-0.014,0.012c-0.008,0.007-0.016,0.014-0.023,0.024c-0.004,0.003-0.01,0.009-0.016,0.012
		c-0.004,0.003-0.006,0.007-0.01,0.01s-0.01,0.008-0.014,0.012c-0.01,0.009-0.018,0.017-0.027,0.024
		c-0.002,0.003-0.006,0.009-0.01,0.012s-0.01,0.007-0.012,0.01c-0.006,0.003-0.01,0.008-0.014,0.012
		c-0.006,0.005-0.01,0.009-0.014,0.014c-0.006,0.003-0.008,0.007-0.012,0.01c-0.006,0.003-0.008,0.007-0.014,0.01
		c-0.004,0.007-0.008,0.009-0.014,0.014c-0.004,0.005-0.008,0.007-0.01,0.01c-0.01,0.009-0.02,0.017-0.027,0.024
		c-0.004,0.003-0.008,0.009-0.012,0.012c-0.006,0.005-0.01,0.008-0.014,0.014c-0.006,0.003-0.008,0.007-0.013,0.01
		c-0.003,0.003-0.009,0.01-0.013,0.01c-0.008,0.008-0.018,0.017-0.025,0.025c-0.004,0.003-0.008,0.007-0.014,0.01
		c-0.004,0.005-0.008,0.009-0.012,0.012s-0.006,0.007-0.012,0.01c-0.006,0.005-0.01,0.007-0.014,0.014
		c-0.008,0.008-0.018,0.015-0.025,0.022c-0.006,0.005-0.008,0.009-0.012,0.012c-0.006,0.005-0.01,0.01-0.012,0.012
		c-0.006,0.005-0.012,0.009-0.013,0.012c-0.007,0.005-0.009,0.008-0.014,0.012c-0.009,0.007-0.015,0.016-0.026,0.024
		c-0.008,0.009-0.018,0.016-0.025,0.024c-0.004,0.003-0.008,0.007-0.012,0.01c-0.005,0.003-0.008,0.009-0.014,0.01
		c-0.004,0.005-0.008,0.01-0.014,0.014c-0.005,0.003-0.006,0.009-0.01,0.012c-0.006,0.003-0.01,0.007-0.014,0.01
		c-0.006,0.005-0.01,0.01-0.014,0.014s-0.008,0.007-0.012,0.012c-0.01,0.007-0.016,0.014-0.025,0.022
		c-0.004,0.003-0.01,0.007-0.013,0.012c-0.005,0.003-0.009,0.009-0.013,0.012s-0.012,0.007-0.015,0.012
		c-0.003,0.003-0.009,0.009-0.013,0.01c-0.002,0.005-0.006,0.009-0.01,0.012c-0.006,0.003-0.01,0.007-0.014,0.012
		c-0.005,0.005-0.008,0.009-0.014,0.014c-0.005,0.002-0.008,0.007-0.014,0.01c-0.004,0.005-0.006,0.009-0.014,0.012
		c-0.002,0.003-0.006,0.007-0.01,0.01s-0.009,0.008-0.012,0.012c-0.008,0.003-0.011,0.009-0.014,0.014
		c-0.004,0.003-0.01,0.007-0.012,0.01c-0.008,0.003-0.012,0.009-0.014,0.012c-0.006,0.007-0.01,0.008-0.014,0.012
		s-0.008,0.007-0.013,0.01c-0.003,0.005-0.009,0.009-0.011,0.014c-0.006,0.003-0.01,0.007-0.014,0.01
		c-0.004,0.005-0.008,0.009-0.014,0.012c-0.008,0.008-0.017,0.015-0.023,0.025c-0.007,0.002-0.01,0.007-0.016,0.01
		c-0.002,0.003-0.006,0.007-0.012,0.012c-0.004,0.003-0.008,0.008-0.014,0.012c-0.002,0.002-0.004,0.005-0.006,0.005
		c-0.001,0.001-0.002,0.003-0.004,0.005c-0.006,0.005-0.01,0.009-0.014,0.014c-0.006,0.003-0.01,0.009-0.014,0.01
		c-0.004,0.003-0.008,0.007-0.011,0.012c-0.005,0.003-0.011,0.007-0.015,0.012c-0.004,0.005-0.008,0.007-0.012,0.012
		c-0.004,0.003-0.01,0.007-0.014,0.012c-0.004,0.003-0.008,0.009-0.012,0.01c-0.01,0.009-0.017,0.017-0.027,0.024
		c-0.003,0.005-0.008,0.009-0.012,0.012s-0.006,0.007-0.012,0.01c-0.008,0.01-0.018,0.017-0.025,0.025
		c-0.006,0.003-0.009,0.007-0.014,0.014c-0.004,0.002-0.009,0.005-0.014,0.009c-0.004,0.005-0.006,0.008-0.01,0.012
		c-0.01,0.009-0.02,0.017-0.027,0.024c-0.66,0.595-1.543,0.95-2.514,0.95c-1.895,0-3.299-1.218-3.675-3.047l1.283-1.182l1.28-0.359
		c0.172,1.203,1.096,2.746,2.359,2.746c0.324,0,0.643-0.624,0.934-0.74c0.131-0.282,0.209-0.596,0.209-0.933
		c0-1.377-1.08-1.844-2.172-2.345l-0.721-0.312c-1.375-0.625-2.561-1.329-2.561-3.015c0-0.863,0.343-1.579,0.889-2.097
		c0.004-0.004,0.01-0.008,0.015-0.011c0.003-0.005,0.009-0.009,0.013-0.012c0.003-0.004,0.008-0.007,0.012-0.013
		c0.005-0.003,0.008-0.007,0.014-0.013c0.003-0.001,0.006-0.005,0.012-0.009c0.004-0.004,0.008-0.008,0.014-0.011
		c0.004-0.006,0.007-0.009,0.014-0.013c0.002-0.003,0.008-0.006,0.012-0.012c0.004-0.003,0.009-0.007,0.012-0.013
		c0.006-0.002,0.009-0.007,0.014-0.011c0.004-0.002,0.008-0.006,0.012-0.012c0.004-0.003,0.01-0.007,0.013-0.011
		c0.003-0.005,0.009-0.007,0.014-0.01c0.003-0.006,0.007-0.008,0.012-0.013c0.003-0.002,0.009-0.009,0.013-0.012
		c0.006-0.004,0.008-0.009,0.014-0.012c0.003-0.003,0.006-0.007,0.012-0.01c0.003-0.006,0.008-0.008,0.014-0.013
		c0.003-0.004,0.008-0.007,0.012-0.011c0.005-0.005,0.008-0.007,0.012-0.012c0.006-0.003,0.009-0.009,0.014-0.013
		c0.004-0.003,0.009-0.008,0.012-0.01c0.004-0.004,0.009-0.008,0.014-0.012c0.004-0.004,0.008-0.008,0.012-0.011
		c0.004-0.005,0.011-0.009,0.014-0.012c0.004-0.005,0.01-0.009,0.013-0.011c0.005-0.005,0.007-0.01,0.014-0.013
		c0.003-0.003,0.007-0.008,0.011-0.01c0.004-0.005,0.01-0.008,0.015-0.012c0.003-0.004,0.009-0.01,0.014-0.014
		c0.002-0.003,0.007-0.007,0.009-0.01c0.004-0.005,0.01-0.009,0.014-0.013c0.005-0.003,0.008-0.008,0.014-0.013
		c0.005-0.003,0.008-0.007,0.012-0.012c0.006-0.004,0.009-0.007,0.014-0.009c0.004-0.006,0.009-0.009,0.012-0.015
		c0.006-0.004,0.008-0.007,0.012-0.011c0.006-0.003,0.011-0.009,0.014-0.012c0.006-0.004,0.01-0.009,0.014-0.011
		c0.004-0.005,0.01-0.009,0.013-0.012c0.003-0.003,0.009-0.007,0.012-0.012c0.005-0.005,0.009-0.008,0.014-0.012
		c0.002-0.002,0.007-0.008,0.013-0.014c0.003-0.002,0.008-0.007,0.014-0.009c0.004-0.005,0.008-0.01,0.014-0.012
		c0.001-0.004,0.008-0.009,0.012-0.013c0.003-0.006,0.008-0.007,0.012-0.013c0.005-0.001,0.007-0.005,0.014-0.009
		c0.004-0.004,0.007-0.008,0.012-0.011c0.004-0.005,0.009-0.009,0.01-0.012c0.008-0.004,0.011-0.009,0.014-0.014
		c0.006-0.004,0.01-0.007,0.014-0.012c0.006-0.002,0.011-0.007,0.013-0.011c0.003-0.003,0.009-0.007,0.014-0.012
		c0.005-0.004,0.009-0.007,0.014-0.013c0.003-0.003,0.009-0.005,0.012-0.01c0.003-0.004,0.009-0.008,0.013-0.011
		c0.004-0.005,0.008-0.009,0.014-0.012c0.003-0.003,0.006-0.007,0.012-0.012c0.003-0.004,0.008-0.007,0.012-0.011
		c0.005-0.005,0.008-0.008,0.012-0.012c0.006-0.004,0.009-0.008,0.016-0.011c0.004-0.005,0.008-0.009,0.01-0.012
		c0.008-0.004,0.011-0.007,0.016-0.013c0.004-0.003,0.007-0.007,0.012-0.011c0.002-0.003,0.009-0.007,0.012-0.013
		c0.004-0.004,0.01-0.007,0.013-0.012c0.005-0.003,0.009-0.007,0.014-0.01c0.003-0.003,0.007-0.006,0.012-0.012
		c0.003-0.004,0.011-0.008,0.014-0.013c0.005-0.001,0.007-0.005,0.013-0.011c0.003-0.002,0.01-0.007,0.014-0.009
		c0.003-0.006,0.008-0.009,0.012-0.014c0.005-0.005,0.008-0.007,0.012-0.012c0.005-0.004,0.008-0.008,0.014-0.011
		c0.004-0.002,0.008-0.009,0.012-0.012c0.004-0.004,0.009-0.01,0.012-0.01c0.006-0.004,0.009-0.011,0.014-0.014
		c0.004-0.005,0.011-0.007,0.012-0.012c0.008-0.004,0.01-0.008,0.014-0.011c0.004-0.005,0.008-0.008,0.014-0.012
		c0.004-0.004,0.008-0.009,0.013-0.011c0.003-0.005,0.009-0.01,0.012-0.013c0.005-0.004,0.009-0.006,0.013-0.011
		c0.004-0.004,0.01-0.008,0.014-0.014c0.003-0.002,0.01-0.007,0.012-0.011c0.005-0.002,0.008-0.008,0.014-0.011
		c0.003-0.003,0.008-0.007,0.012-0.011c0.004-0.003,0.01-0.006,0.012-0.013c0.006-0.002,0.01-0.007,0.014-0.012
		c0.004-0.003,0.007-0.007,0.014-0.011c0.002-0.002,0.007-0.007,0.012-0.012c0.006-0.004,0.009-0.007,0.014-0.011
		c0.004-0.003,0.009-0.008,0.012-0.012c0.004-0.002,0.011-0.007,0.013-0.012c0.005-0.003,0.009-0.007,0.014-0.011
		c0.003-0.003,0.007-0.007,0.012-0.012c0.005-0.004,0.009-0.008,0.013-0.011c0.004-0.006,0.01-0.009,0.015-0.015
		c0.003-0.001,0.005-0.005,0.011-0.008c0.613-0.586,1.488-0.36,2.42-0.36c1.312,0,2.42,0.114,3.049,1.269L170.811,16.308z"/>
	<polygon fill="#0F1F28" points="45.846,25.282 45.789,24.122 42.537,24.122 42.537,13.556 41.28,13.501 40,14.683 40,26.466 
		44.562,26.466 	"/>
	<polygon fill="#0F1F28" points="56.657,26.466 50.548,26.466 50.548,14.683 51.828,13.501 57.884,13.556 57.939,14.718 
		56.657,15.902 53.088,15.902 53.088,18.275 57.743,18.275 57.799,19.438 56.518,20.62 53.088,20.62 53.088,24.122 57.884,24.122 
		57.939,25.282 	"/>
	<polygon fill="#0F1F28" points="64.971,26.466 63.658,26.466 63.658,14.184 64.94,13 72.847,21.898 72.847,14.683 74.129,13.501 
		74.826,13.556 75.44,25.815 74.159,26.999 65.957,18.414 66.253,25.282 	"/>
	<path fill="#0F1F28" d="M81.301,14.683v11.783h2.188c1.843,0,3.249-0.234,4.657-1.483c0.003-0.003,0.006-0.009,0.01-0.012
		c0,0,0.004,0,0.004-0.001c0.002-0.002,0.005-0.005,0.006-0.007c0.004,0,0.004-0.005,0.004-0.005
		c0.006-0.001,0.007-0.005,0.01-0.007c0,0,0.002,0,0.006-0.003s0.005-0.007,0.008-0.01c0.002,0,0.002,0,0.002-0.001
		c0.004-0.002,0.009-0.007,0.011-0.01c0.001,0,0.003-0.002,0.003-0.002c0.004-0.001,0.008-0.005,0.011-0.008
		c0-0.002,0.001-0.002,0.003-0.003c0.002-0.003,0.006-0.005,0.011-0.007l0.001-0.003c0.004-0.003,0.006-0.007,0.01-0.009
		c0.001,0,0.001-0.003,0.004-0.003c0.002-0.003,0.006-0.007,0.01-0.01c0.001,0,0.001-0.001,0.003-0.001
		c0.003-0.002,0.007-0.007,0.009-0.01c0.003,0,0.003-0.002,0.003-0.002c0.003-0.001,0.009-0.007,0.011-0.008
		c0.002-0.002,0.003-0.003,0.003-0.003c0.002-0.003,0.005-0.005,0.007-0.007c0.004,0,0.004-0.003,0.006-0.003
		c0.004-0.003,0.006-0.007,0.012-0.012l0,0c0.005-0.003,0.006-0.007,0.01-0.01c0.002,0,0.002-0.001,0.004-0.003
		c0.003,0,0.006-0.005,0.008-0.008c0.002,0,0.004-0.002,0.004-0.002c0.004-0.001,0.007-0.005,0.008-0.008
		c0.002-0.002,0.004-0.003,0.006-0.003c0.005-0.005,0.007-0.007,0.012-0.012c0.004-0.001,0.007-0.005,0.009-0.007
		c0.001-0.001,0.001-0.003,0.003-0.005c0.006-0.003,0.008-0.007,0.011-0.009c0.001-0.001,0.001-0.003,0.003-0.003
		c0.004,0,0.006-0.005,0.011-0.007c0-0.001,0.001-0.003,0.003-0.003c0-0.003,0.006-0.007,0.009-0.01c0.002,0,0.003,0,0.003,0
		l0.008-0.008c0.003-0.003,0.003-0.003,0.006-0.007c0.004-0.003,0.008-0.007,0.013-0.01l0,0c0.001-0.003,0.005-0.003,0.009-0.009
		c0.002-0.001,0.002-0.001,0.005-0.003c0.003-0.003,0.005-0.007,0.009-0.01h0.002c0.003-0.005,0.006-0.007,0.008-0.01
		c0.002,0,0.006,0,0.006,0c0.002-0.006,0.008-0.008,0.01-0.012c0-0.002,0.002-0.002,0.002-0.003c0.005-0.003,0.006-0.005,0.01-0.009
		c0-0.001,0.002-0.001,0.004-0.001c0.003-0.003,0.006-0.008,0.012-0.012l0,0c0.004-0.003,0.007-0.007,0.01-0.01c0,0,0.002,0,0.004,0
		c0.004-0.005,0.006-0.009,0.008-0.011c0.002,0,0.002-0.003,0.002-0.003c0.006-0.004,0.008-0.005,0.011-0.009
		c0.001-0.002,0.005-0.002,0.005-0.003c0.004-0.001,0.007-0.005,0.01-0.01c0,0,0.002,0,0.002-0.002
		c0.002-0.001,0.006-0.005,0.009-0.007c0.002-0.001,0.002-0.001,0.003-0.003c0.006-0.005,0.01-0.009,0.014-0.012
		c0.004-0.005,0.006-0.007,0.01-0.008c0,0,0.002-0.004,0.002-0.005c0.004-0.001,0.008-0.003,0.012-0.007
		c0-0.001,0.001-0.001,0.001-0.003c0.005-0.003,0.009-0.007,0.011-0.01c0,0,0.002-0.001,0.003-0.001
		c0.003-0.002,0.007-0.009,0.013-0.011c0,0,0,0,0.001-0.003c0.001,0,0.005-0.005,0.009-0.007c0.002,0,0.002-0.002,0.004-0.002
		c0.002-0.003,0.006-0.007,0.008-0.009c0.002,0,0.002-0.003,0.006-0.003c0.001-0.004,0.004-0.005,0.008-0.011
		c0,0,0.004,0,0.004-0.001c0.002-0.003,0.004-0.007,0.01-0.01c0-0.002,0.002-0.002,0.002-0.002c0.005-0.001,0.006-0.007,0.008-0.01
		c0.002,0,0.004,0,0.006-0.004c0.004-0.001,0.006-0.005,0.01-0.008c0,0,0,0,0.004-0.001c0.002-0.002,0.006-0.005,0.008-0.009
		c0.002-0.002,0.002-0.002,0.002-0.003c0.004-0.003,0.009-0.007,0.012-0.01c0-0.002,0-0.002,0-0.002
		c0.006-0.001,0.008-0.005,0.011-0.007c0-0.001,0.003-0.003,0.003-0.003c0.004-0.004,0.008-0.007,0.008-0.009
		c0.003-0.002,0.003-0.005,0.006-0.005c0.004-0.004,0.01-0.005,0.011-0.009c0,0,0.001-0.002,0.001-0.003
		c0.004-0.001,0.008-0.005,0.01-0.008c0.002-0.002,0.002-0.002,0.002-0.002c0.006-0.003,0.008-0.007,0.012-0.01
		c0.003-0.001,0.003-0.001,0.003-0.001c0.003-0.004,0.007-0.007,0.011-0.011c0,0,0.002,0,0.003-0.001
		c0.003-0.003,0.007-0.005,0.009-0.008c0,0,0.002-0.004,0.004-0.004c0.002-0.001,0.004-0.005,0.006-0.007
		c0.004-0.001,0.004-0.003,0.008-0.005c0.001-0.002,0.006-0.005,0.008-0.009c0.002-0.001,0.002-0.001,0.004-0.001
		c0.003-0.003,0.006-0.007,0.01-0.01c0,0,0-0.002,0.004-0.002c0.003-0.001,0.004-0.007,0.006-0.01c0.004,0,0.004-0.002,0.004-0.002
		c0.004-0.003,0.008-0.007,0.01-0.009c0.002-0.003,0.004-0.003,0.004-0.003c0.006-0.004,0.006-0.005,0.008-0.007
		c0.002-0.004,0.004-0.004,0.004-0.005c0.004-0.003,0.008-0.005,0.009-0.008c0.003-0.002,0.005-0.002,0.005-0.004
		c0.004-0.001,0.008-0.005,0.01-0.008c0.002,0,0.002-0.001,0.002-0.003c0.004-0.003,0.008-0.005,0.011-0.009
		c0.001-0.001,0.001-0.001,0.001-0.001c0.006-0.005,0.008-0.007,0.01-0.008c0.002-0.004,0.003-0.004,0.004-0.004
		c0.006-0.003,0.008-0.008,0.014-0.012l0,0c0.002-0.002,0.006-0.005,0.008-0.007c0-0.003,0.004-0.003,0.005-0.007
		c0.003-0.003,0.007-0.005,0.011-0.007c0-0.002,0-0.002,0-0.003c0.006-0.003,0.008-0.007,0.014-0.01h0.002
		c0.002-0.003,0.006-0.009,0.008-0.012c0.004,0,0.004,0,0.004-0.002c0.002-0.002,0.006-0.005,0.008-0.007s0.004-0.003,0.006-0.003
		c0.003-0.003,0.004-0.007,0.01-0.008c0.002-0.002,0.002-0.004,0.002-0.004c0.004-0.005,0.005-0.007,0.008-0.008
		c0.002,0,0.002-0.001,0.006-0.003c0.004-0.003,0.006-0.007,0.01-0.01h0.002c0.004-0.003,0.007-0.007,0.008-0.01
		c0.004,0,0.004-0.002,0.004-0.002c0.004-0.003,0.009-0.008,0.01-0.01c0.004-0.002,0.004-0.002,0.004-0.004
		c0.004-0.001,0.006-0.003,0.009-0.007c0.001-0.001,0.001-0.003,0.003-0.003c0.004-0.004,0.006-0.007,0.012-0.011
		c0-0.001,0-0.001,0.002-0.001c0.004-0.003,0.006-0.007,0.01-0.008c0.001-0.002,0.001-0.002,0.002-0.004
		c0.004-0.003,0.01-0.005,0.013-0.01v-0.002c0.003-0.003,0.007-0.007,0.011-0.01c0,0,0.002,0,0.003-0.001
		c0.003-0.002,0.007-0.007,0.011-0.011c0.002,0,0.002,0,0.002,0c0.002-0.003,0.006-0.007,0.01-0.008c0-0.001,0-0.001,0.004-0.001
		l0.008-0.012c0.002-0.001,0.002-0.001,0.006-0.003c0.001-0.002,0.004-0.003,0.008-0.009c0.002,0,0.002-0.001,0.004-0.001
		c0.003-0.003,0.006-0.007,0.008-0.01c0.002,0,0.004,0,0.004-0.002c0.002-0.003,0.006-0.007,0.01-0.01h0.004
		c0.002-0.005,0.005-0.007,0.01-0.011c0,0,0,0,0.002-0.003c0.002-0.002,0.006-0.005,0.008-0.007c0.002,0,0.002-0.004,0.004-0.005
		c0.006-0.003,0.009-0.007,0.012-0.01c0.002,0,0.002,0,0.002,0c0.002-0.003,0.006-0.007,0.009-0.01c0,0,0.003-0.001,0.003-0.003
		c0.002-0.003,0.01-0.005,0.011-0.009h0.001c0.006-0.005,0.008-0.008,0.012-0.01l0.002-0.004c0.004-0.003,0.006-0.007,0.013-0.01
		c0,0,0,0,0.001,0c0.002-0.004,0.006-0.009,0.01-0.011c0-0.001,0.002-0.001,0.003-0.003c0.003-0.002,0.007-0.007,0.011-0.011
		c0,0,0-0.001,0.002-0.001l0.008-0.007c0.002,0,0.004-0.001,0.006-0.005c0.002-0.003,0.006-0.005,0.01-0.007
		c0-0.003,0.002-0.003,0.002-0.003c0.002-0.004,0.006-0.007,0.01-0.011c0,0,0.002-0.001,0.004-0.001
		c0.003-0.003,0.006-0.007,0.01-0.01c0-0.002,0-0.002,0.004-0.002c0.002-0.001,0.003-0.005,0.006-0.008
		c0.002,0,0.004-0.001,0.004-0.003c0.004-0.003,0.008-0.007,0.01-0.009c0.002,0,0.002-0.003,0.002-0.003
		c1.299-1.157,1.623-2.777,1.623-4.496c0-1.751-0.354-3.128-1.697-4.286c-1.391-1.188-2.784-1.145-4.551-1.145l-2.219-0.372
		L81.301,14.683z M87.223,17.043c1.016,0.891,1.531,2.186,1.531,3.531c0,1.028-0.307,2.01-0.905,2.821
		c-0.894,0.542-1.896,0.989-3.021,0.989l-1.492,0.239l0.559-8.719C85.146,15.938,86.23,16.165,87.223,17.043"/>
	<path fill="#0F1F28" d="M103.413,13.855c-1.579,0-3.032,0.046-4.126,1.037c-0.004,0.005-0.01,0.009-0.015,0.014
		c-0.002,0.005-0.007,0.007-0.011,0.011c-0.005,0.003-0.01,0.008-0.014,0.013c-0.005,0.002-0.006,0.007-0.014,0.009
		c-0.002,0.005-0.006,0.009-0.012,0.015c-0.004,0.003-0.008,0.007-0.012,0.01c-0.004,0.006-0.009,0.01-0.012,0.013
		c-0.006,0.002-0.009,0.007-0.016,0.011c-0.004,0.005-0.007,0.008-0.01,0.012c-0.004,0.004-0.01,0.009-0.011,0.009
		c-0.007,0.006-0.013,0.009-0.017,0.016c-0.002,0.003-0.006,0.005-0.011,0.01c-0.005,0.001-0.011,0.008-0.014,0.011
		c-0.005,0.003-0.009,0.009-0.014,0.012c-0.003,0.004-0.007,0.009-0.013,0.011c-0.003,0.004-0.008,0.008-0.014,0.012
		c-0.003,0.004-0.006,0.01-0.014,0.014c-0.003,0.003-0.008,0.006-0.01,0.01c-0.005,0.005-0.008,0.009-0.014,0.014
		c-0.005,0.004-0.007,0.007-0.012,0.011c-0.004,0.003-0.009,0.005-0.012,0.01c-0.004,0.004-0.011,0.009-0.014,0.014
		c-0.006,0.005-0.009,0.009-0.012,0.012c-0.006,0.003-0.01,0.006-0.014,0.009c-0.004,0.005-0.008,0.008-0.013,0.014
		c-0.003,0.002-0.009,0.007-0.014,0.011c-0.003,0.002-0.007,0.008-0.012,0.012c-0.003,0.003-0.009,0.01-0.014,0.012
		c-0.005,0.003-0.009,0.007-0.011,0.011c-0.006,0.003-0.01,0.007-0.014,0.01c-0.005,0.004-0.008,0.01-0.014,0.013
		c-0.003,0.005-0.008,0.009-0.012,0.012c-0.005,0.004-0.008,0.009-0.01,0.011c-0.006,0.004-0.009,0.008-0.016,0.013
		c-0.004,0.003-0.009,0.009-0.014,0.012c-0.004,0.003-0.007,0.007-0.01,0.01c-0.006,0.005-0.01,0.009-0.016,0.014
		c-0.004,0.002-0.008,0.008-0.011,0.009c-0.005,0.005-0.011,0.007-0.012,0.013c-0.007,0.003-0.011,0.009-0.016,0.012
		c-0.003,0.003-0.009,0.008-0.012,0.013c-0.005,0.002-0.009,0.007-0.013,0.009c-0.004,0.005-0.008,0.009-0.014,0.011
		c-0.003,0.005-0.008,0.009-0.012,0.014c-0.003,0.005-0.01,0.008-0.012,0.011c-0.005,0.003-0.008,0.007-0.014,0.013
		c-0.005,0.003-0.007,0.007-0.014,0.011c-0.002,0.003-0.007,0.009-0.012,0.012c-0.006,0.003-0.007,0.007-0.01,0.011
		c-0.008,0.005-0.013,0.007-0.016,0.012c-0.004,0.004-0.009,0.007-0.012,0.011c-0.006,0.005-0.01,0.01-0.014,0.012
		c-0.006,0.004-0.008,0.009-0.013,0.013c-0.003,0.003-0.009,0.006-0.012,0.01c-0.005,0.005-0.011,0.009-0.013,0.01
		c-0.004,0.006-0.008,0.009-0.014,0.013c-0.004,0.005-0.01,0.009-0.014,0.012c-0.004,0.004-0.006,0.009-0.012,0.013
		c-0.005,0.003-0.008,0.008-0.014,0.013c-0.003,0.002-0.008,0.007-0.012,0.01c-0.004,0.005-0.008,0.008-0.012,0.011
		c-0.006,0.005-0.009,0.01-0.014,0.012c-0.006,0.004-0.009,0.009-0.012,0.014c-0.008,0.002-0.009,0.008-0.014,0.012
		c-0.006,0.002-0.009,0.008-0.011,0.011c-0.007,0.003-0.012,0.007-0.015,0.009c-0.004,0.006-0.01,0.009-0.013,0.014
		c-0.005,0.005-0.009,0.007-0.014,0.012c-0.003,0.002-0.007,0.008-0.012,0.011c-0.003,0.003-0.009,0.008-0.013,0.012
		c-0.004,0.003-0.008,0.009-0.012,0.012c-0.005,0.004-0.01,0.007-0.014,0.013c-0.005,0.003-0.008,0.005-0.012,0.01
		c-0.007,0.004-0.008,0.009-0.014,0.011c-0.005,0.005-0.008,0.008-0.012,0.012c-0.004,0.004-0.007,0.009-0.014,0.013
		c-0.004,0.003-0.009,0.008-0.012,0.011c-0.006,0.003-0.011,0.008-0.016,0.013c-0.002,0.002-0.006,0.006-0.01,0.012
		c-0.004,0.002-0.01,0.007-0.014,0.009c-0.004,0.006-0.008,0.009-0.011,0.013c-0.005,0.003-0.009,0.008-0.014,0.011
		s-0.011,0.009-0.014,0.013c-0.005,0.003-0.009,0.009-0.013,0.012c-0.004,0.004-0.008,0.007-0.012,0.01
		c-0.003,0.005-0.01,0.009-0.014,0.014c-0.003,0.004-0.008,0.007-0.012,0.011c-0.005,0.005-0.008,0.009-0.014,0.012
		c-0.004,0.002-0.01,0.008-0.014,0.012c-0.005,0.003-0.007,0.007-0.01,0.011c-0.006,0.004-0.009,0.007-0.014,0.012
		c-0.006,0.004-0.009,0.009-0.014,0.014c-0.004,0.002-0.008,0.006-0.011,0.009c-0.007,0.003-0.011,0.008-0.014,0.011
		c-0.005,0.005-0.011,0.009-0.014,0.013c-0.001,0.003-0.009,0.006-0.012,0.011c-0.003,0.004-0.009,0.008-0.016,0.014
		c-0.001,0.002-0.005,0.006-0.011,0.009c-0.003,0.004-0.008,0.008-0.012,0.011c-0.005,0.005-0.01,0.009-0.014,0.015
		c-1.24,1.117-2.029,2.729-2.029,4.524c0,3.392,2.783,6.08,6.143,6.08c1.581,0,3.033-0.595,4.131-1.577
		c0.003-0.005,0.005-0.009,0.01-0.012s0.009-0.007,0.012-0.01c0.004-0.003,0.011-0.008,0.014-0.014
		c0.004-0.003,0.007-0.007,0.013-0.012c0.005-0.003,0.01-0.007,0.014-0.01c0.003-0.003,0.007-0.009,0.012-0.012
		c0.003-0.003,0.009-0.008,0.014-0.012c0.003-0.005,0.009-0.007,0.01-0.012c0.006-0.003,0.011-0.008,0.016-0.012
		c0.004-0.003,0.007-0.007,0.012-0.01c0.006-0.005,0.009-0.01,0.013-0.014c0.005-0.005,0.008-0.009,0.014-0.012
		c0.005,0,0.008-0.007,0.012-0.01c0.005-0.003,0.009-0.007,0.014-0.012c0.003-0.003,0.007-0.007,0.012-0.01
		c0.005-0.005,0.009-0.009,0.012-0.014c0.006-0.003,0.009-0.007,0.014-0.01c0.004-0.005,0.009-0.009,0.014-0.012
		c0.004-0.005,0.007-0.007,0.011-0.012c0.005-0.003,0.01-0.007,0.014-0.012c0.005-0.003,0.007-0.008,0.012-0.012
		c0.007-0.003,0.009-0.007,0.014-0.01c0.005-0.005,0.009-0.009,0.014-0.014c0.004-0.003,0.009-0.005,0.012-0.012
		c0.004-0.003,0.009-0.005,0.013-0.01c0.005-0.005,0.008-0.008,0.014-0.012c0.003-0.003,0.01-0.009,0.014-0.012
		c0.003-0.005,0.008-0.008,0.012-0.012c0.003-0.003,0.007-0.005,0.012-0.012c0.004-0.003,0.007-0.007,0.014-0.01
		c0.004-0.003,0.009-0.01,0.012-0.012c0.006-0.005,0.009-0.01,0.013-0.012c0.005-0.005,0.008-0.008,0.014-0.012
		c0.003-0.003,0.008-0.009,0.012-0.012c0.005-0.003,0.009-0.008,0.012-0.012c0.005-0.002,0.009-0.007,0.014-0.01
		c0.004-0.005,0.009-0.01,0.012-0.012c0.007-0.005,0.011-0.009,0.014-0.014c0.006-0.004,0.007-0.007,0.014-0.011
		c0.004-0.003,0.009-0.008,0.013-0.012c0.003-0.002,0.007-0.007,0.01-0.01c0.007-0.005,0.011-0.008,0.018-0.014
		c0.001-0.003,0.007-0.007,0.01-0.01c0.005-0.005,0.009-0.009,0.012-0.012c0.007-0.004,0.009-0.011,0.014-0.014
		c0.004-0.004,0.009-0.007,0.014-0.012c0.002-0.001,0.007-0.005,0.011-0.008c0.007-0.005,0.01-0.009,0.016-0.016
		c0.003-0.002,0.007-0.007,0.012-0.01c0.003-0.003,0.007-0.007,0.012-0.01c0.004-0.005,0.009-0.009,0.014-0.014
		c0.005-0.003,0.007-0.007,0.014-0.012c0.002-0.004,0.007-0.005,0.011-0.011c0.005-0.003,0.008-0.008,0.012-0.012
		c0.007-0.003,0.009-0.007,0.016-0.012c0.003-0.004,0.007-0.009,0.012-0.012c0.002-0.003,0.009-0.007,0.012-0.01
		c0.004-0.005,0.009-0.009,0.014-0.012c0.004-0.007,0.009-0.009,0.012-0.014c0.004-0.004,0.009-0.007,0.013-0.011
		c0.003-0.005,0.008-0.008,0.014-0.012c0.005-0.005,0.007-0.009,0.014-0.012c0.003-0.004,0.008-0.009,0.012-0.011
		c0.003-0.007,0.009-0.01,0.01-0.014c0.007-0.003,0.009-0.007,0.014-0.01c0.004-0.005,0.009-0.009,0.013-0.012
		c0.003-0.003,0.01-0.007,0.014-0.012c0.005-0.003,0.008-0.008,0.014-0.012c0.003-0.005,0.008-0.009,0.012-0.012
		c0.003-0.004,0.009-0.009,0.012-0.012c0.007-0.003,0.009-0.007,0.014-0.01c0.003-0.003,0.009-0.01,0.012-0.014
		c0.006-0.003,0.009-0.009,0.014-0.012c0.005-0.004,0.007-0.007,0.013-0.011c0.005-0.003,0.008-0.008,0.012-0.012
		c0.005-0.003,0.008-0.01,0.014-0.012c0.005-0.004,0.009-0.009,0.014-0.012c0.003-0.003,0.007-0.007,0.014-0.012
		c0.003-0.003,0.007-0.007,0.01-0.01c0.006-0.004,0.009-0.009,0.012-0.014c0.006-0.004,0.013-0.009,0.014-0.012
		c0.006-0.003,0.011-0.007,0.013-0.01c0.003-0.003,0.009-0.007,0.012-0.01c0.005-0.003,0.011-0.008,0.016-0.014
		c0.003-0.003,0.007-0.008,0.01-0.012c0.007-0.003,0.011-0.007,0.014-0.01c0.005-0.005,0.009-0.009,0.013-0.012
		c0.006-0.003,0.01-0.008,0.014-0.014c0.005-0.001,0.008-0.007,0.012-0.012c0.007-0.001,0.01-0.005,0.014-0.01
		c0.003-0.004,0.008-0.007,0.012-0.011c0.005-0.003,0.01-0.01,0.014-0.014c0.005-0.003,0.007-0.007,0.014-0.008
		c0.004-0.007,0.007-0.01,0.012-0.014c0.004-0.003,0.007-0.008,0.012-0.012c0.006-0.003,0.009-0.007,0.013-0.01
		c0.005-0.004,0.009-0.011,0.015-0.014c0.004-0.005,0.008-0.009,0.011-0.012c0.005-0.003,0.009-0.007,0.016-0.01
		c0.003-0.005,0.007-0.007,0.01-0.012c1.241-1.109,1.468-2.71,1.468-4.515C108.995,16.033,106.774,13.855,103.413,13.855
		 M103.413,24.827c-2.673,0-5.387-2.778-5.387-5.436c0-1.105,0.923-2.132,1.542-2.953c0.738-0.469,1.614-0.739,2.562-0.739
		c2.705,0,4.831,2.202,4.831,4.874c0,1.101-0.371,2.122-0.993,2.947C105.228,23.995,104.353,24.827,103.413,24.827"/>
	<path fill="#0F1F28" d="M117.337,25.282l-0.111-3.978c0.878-0.029,1.871-0.191,2.58-0.775c0.047-0.04,0.092-0.079,0.133-0.118
		c0.01-0.007,0.016-0.014,0.023-0.019c0-0.004,0-0.004,0.004-0.006c0.006-0.008,0.014-0.014,0.02-0.021
		c0.002,0,0.004-0.001,0.004-0.003c0.008-0.007,0.014-0.014,0.021-0.019c0.002-0.002,0.002-0.002,0.006-0.004
		c0.006-0.007,0.014-0.014,0.021-0.021c0.002-0.002,0.004-0.005,0.006-0.007c0.006-0.005,0.01-0.009,0.014-0.012
		c0.002-0.004,0.01-0.007,0.014-0.012c0.002-0.004,0.008-0.009,0.012-0.013c0.004-0.005,0.01-0.008,0.014-0.012
		c0.002-0.003,0.002-0.003,0.006-0.007c0.008-0.009,0.016-0.016,0.023-0.019c0.002-0.004,0.004-0.007,0.006-0.011
		c0.006-0.003,0.01-0.007,0.014-0.01c0.004-0.005,0.008-0.005,0.01-0.009c0.006-0.007,0.012-0.01,0.016-0.016
		c0.006-0.005,0.012-0.01,0.016-0.015c0.004-0.006,0.008-0.006,0.01-0.009c0.002-0.002,0.006-0.004,0.01-0.007
		c0.008-0.007,0.014-0.014,0.02-0.021c0.002-0.002,0.004-0.002,0.006-0.004c0.004-0.005,0.012-0.01,0.017-0.015
		c0.005-0.006,0.013-0.011,0.015-0.016c0.004-0.004,0.008-0.005,0.01-0.009c0.004-0.003,0.01-0.007,0.014-0.014
		c0.004-0.002,0.008-0.005,0.012-0.01c0.005-0.004,0.006-0.007,0.014-0.011c0.004-0.003,0.008-0.009,0.012-0.012
		c0.006-0.004,0.008-0.009,0.012-0.012c0.006-0.006,0.01-0.009,0.014-0.013c0.004-0.003,0.009-0.008,0.012-0.012
		c0.002-0.003,0.008-0.005,0.01-0.007c0.008-0.007,0.015-0.014,0.021-0.017l0.007-0.011c0.003-0.003,0.009-0.005,0.011-0.009
		c0.008-0.007,0.016-0.014,0.02-0.019c0.002-0.003,0.006-0.007,0.01-0.009c0.002-0.001,0.008-0.008,0.012-0.012
		c0.003,0,0.006-0.003,0.008-0.007c0.008-0.005,0.012-0.01,0.018-0.016c0.004-0.005,0.01-0.007,0.014-0.014
		c0.006-0.005,0.012-0.01,0.018-0.012c0.001-0.005,0.004-0.007,0.008-0.01c0.004-0.004,0.007-0.007,0.012-0.013
		c0.004-0.001,0.006-0.005,0.01-0.007c0.006-0.007,0.012-0.01,0.014-0.015c0.008-0.007,0.014-0.013,0.02-0.018
		c0.004-0.002,0.006-0.005,0.007-0.007c0.007-0.003,0.011-0.009,0.014-0.012c0.003-0.005,0.009-0.007,0.014-0.012
		c0.001-0.002,0.005-0.006,0.009-0.009c0.005-0.004,0.01-0.011,0.018-0.014c0.004-0.007,0.012-0.012,0.016-0.016
		c0.002-0.003,0.006-0.007,0.008-0.01c0.004-0.002,0.006-0.006,0.008-0.009c0.01-0.005,0.016-0.011,0.021-0.019
		c0.003-0.002,0.004-0.004,0.008-0.007c0.006-0.004,0.009-0.006,0.01-0.007c0.008-0.007,0.014-0.016,0.021-0.021
		c0.004-0.002,0.005-0.006,0.008-0.007c0.006-0.006,0.01-0.009,0.014-0.014c0.002-0.004,0.008-0.007,0.012-0.011
		c0.004-0.003,0.01-0.009,0.013-0.012c0.005-0.004,0.009-0.007,0.013-0.012c0.004-0.004,0.008-0.009,0.014-0.013
		c0.002-0.001,0.004-0.003,0.01-0.008c0.004-0.004,0.01-0.011,0.018-0.014c0.002-0.007,0.01-0.011,0.015-0.016l0.007-0.009
		c0.004-0.003,0.007-0.005,0.01-0.009c0.008-0.005,0.014-0.012,0.023-0.019c0.002-0.003,0.002-0.005,0.006-0.007
		c0.004-0.005,0.009-0.009,0.012-0.014c0.006-0.003,0.01-0.009,0.014-0.012c0.011-0.007,0.021-0.019,0.031-0.027
		c0.002-0.002,0.004-0.004,0.008-0.009c0.002-0.002,0.008-0.007,0.013-0.01c0.003-0.006,0.009-0.009,0.011-0.013
		c0.006-0.003,0.01-0.007,0.014-0.01c0.004-0.005,0.008-0.009,0.014-0.012c0.003-0.004,0.008-0.007,0.012-0.014
		c0.004-0.004,0.008-0.007,0.012-0.011c0.006-0.005,0.01-0.009,0.016-0.012c0.002-0.004,0.008-0.007,0.01-0.012
		c0.006-0.004,0.01-0.007,0.014-0.014c0.004,0,0.006-0.004,0.009-0.006c0.005-0.005,0.013-0.01,0.017-0.015
		c0.008-0.006,0.011-0.013,0.018-0.016c0.002-0.004,0.004-0.007,0.008-0.009c0.004-0.003,0.01-0.009,0.013-0.012
		c0.005-0.004,0.009-0.009,0.013-0.012c0.004-0.004,0.008-0.007,0.014-0.013c0.002-0.003,0.008-0.007,0.014-0.012
		c0.001-0.005,0.004-0.005,0.008-0.009c0.007-0.005,0.012-0.012,0.021-0.017c0.001-0.002,0.001-0.004,0.005-0.004
		c0.006-0.008,0.014-0.014,0.021-0.021c0.65-0.611,0.646-1.618,0.646-2.514c0-1.046-0.242-1.523-1.119-2.133
		c-0.857-0.594-1.767-0.524-2.783-0.524l-1.938-0.559l-1.282,1.182v11.783h1.312L117.337,25.282z M118.304,19.251l-1.227-0.083
		l0.26-3.244c1.23,0.082,2.281,0.455,2.281,2.042c0,0.298-0.039,0.555-0.109,0.78C119.12,18.862,118.769,19.251,118.304,19.251"/>
	<path fill="#0F1F28" d="M134.119,13.689c-1.579,0-3.032,0.212-4.126,1.203c-0.005,0.005-0.01,0.009-0.014,0.014
		c-0.005,0.005-0.008,0.007-0.014,0.011c-0.003,0.003-0.007,0.008-0.012,0.013c-0.003,0.002-0.009,0.007-0.01,0.009
		c-0.007,0.005-0.011,0.012-0.016,0.015c-0.004,0.003-0.007,0.007-0.012,0.01c-0.004,0.006-0.009,0.008-0.013,0.012
		c-0.005,0.003-0.008,0.008-0.014,0.012c-0.005,0.005-0.008,0.008-0.014,0.012c-0.001,0.004-0.007,0.009-0.01,0.009
		c-0.004,0.006-0.009,0.009-0.014,0.014c-0.005,0.005-0.007,0.009-0.014,0.012c-0.004,0.001-0.007,0.008-0.012,0.011
		c-0.006,0.003-0.009,0.009-0.013,0.012c-0.005,0.004-0.008,0.009-0.014,0.011c-0.003,0.004-0.008,0.008-0.012,0.012
		c-0.005,0.004-0.009,0.01-0.014,0.014c-0.003,0.003-0.007,0.006-0.012,0.01c-0.004,0.005-0.009,0.009-0.014,0.014
		c-0.002,0.004-0.009,0.007-0.012,0.011c-0.004,0.003-0.007,0.005-0.011,0.011c-0.007,0.003-0.01,0.008-0.016,0.013
		c-0.003,0.002-0.008,0.007-0.012,0.012c-0.005,0.001-0.009,0.006-0.012,0.009c-0.005,0.005-0.009,0.008-0.016,0.014
		c-0.002,0.002-0.007,0.008-0.01,0.011c-0.005,0.002-0.009,0.008-0.013,0.012c-0.005,0.003-0.008,0.007-0.014,0.012
		c-0.003,0.003-0.01,0.007-0.014,0.011c-0.005,0.003-0.008,0.007-0.01,0.01c-0.005,0.004-0.01,0.01-0.016,0.013
		c-0.003,0.005-0.009,0.009-0.014,0.012c-0.002,0.004-0.005,0.009-0.008,0.011c-0.006,0.004-0.011,0.008-0.016,0.013
		c-0.004,0.003-0.007,0.009-0.014,0.012c-0.004,0.003-0.007,0.007-0.011,0.01c-0.005,0.005-0.01,0.009-0.015,0.012
		c-0.004,0.004-0.008,0.01-0.011,0.011c-0.004,0.005-0.009,0.007-0.014,0.012c-0.005,0.004-0.009,0.009-0.014,0.013
		c-0.002,0.003-0.007,0.008-0.012,0.013c-0.004,0.002-0.009,0.007-0.013,0.009c-0.005,0.005-0.008,0.009-0.012,0.011
		c-0.005,0.006-0.008,0.009-0.014,0.014c-0.003,0.005-0.008,0.008-0.014,0.011c-0.002,0.003-0.007,0.007-0.01,0.013
		c-0.006,0.003-0.011,0.007-0.016,0.011c-0.004,0.003-0.009,0.007-0.01,0.012c-0.006,0.003-0.011,0.007-0.014,0.011
		c-0.006,0.005-0.009,0.007-0.014,0.012c-0.002,0.002-0.008,0.007-0.013,0.011c-0.003,0.005-0.009,0.01-0.012,0.012
		c-0.007,0.004-0.011,0.009-0.012,0.013c-0.005,0.003-0.009,0.006-0.014,0.01c-0.004,0.005-0.009,0.009-0.014,0.01
		c-0.002,0.006-0.007,0.009-0.011,0.013c-0.005,0.005-0.01,0.009-0.016,0.012c-0.003,0.004-0.008,0.009-0.012,0.013
		c-0.005,0.003-0.008,0.008-0.014,0.011c-0.003,0.003-0.007,0.008-0.012,0.011c-0.004,0.005-0.009,0.008-0.012,0.011
		c-0.006,0.005-0.009,0.01-0.014,0.012c-0.004,0.004-0.009,0.009-0.012,0.014c-0.004,0.002-0.011,0.008-0.013,0.012
		c-0.005,0.002-0.01,0.008-0.014,0.011c-0.005,0.003-0.009,0.007-0.014,0.009c-0.003,0.006-0.007,0.009-0.012,0.014
		c-0.007,0.005-0.009,0.007-0.012,0.012c-0.005,0.002-0.009,0.007-0.014,0.011c-0.004,0.003-0.007,0.008-0.013,0.012
		c-0.005,0.004-0.008,0.009-0.012,0.013c-0.007,0.003-0.008,0.006-0.014,0.012c-0.005,0.003-0.008,0.005-0.014,0.01
		c-0.002,0.004-0.008,0.009-0.012,0.011c-0.004,0.005-0.007,0.008-0.012,0.012c-0.006,0.004-0.007,0.009-0.014,0.013
		c-0.004,0.003-0.009,0.008-0.012,0.011c-0.008,0.003-0.009,0.008-0.013,0.013c-0.005,0.002-0.009,0.006-0.012,0.012
		c-0.005,0.002-0.011,0.007-0.014,0.009c-0.005,0.006-0.009,0.009-0.012,0.013l-0.014,0.013c-0.005,0.001-0.009,0.007-0.014,0.011
		c-0.004,0.003-0.009,0.007-0.013,0.012c-0.003,0.004-0.008,0.007-0.014,0.01c-0.003,0.005-0.006,0.009-0.012,0.014
		c-0.003,0.004-0.007,0.007-0.012,0.011c-0.005,0.005-0.01,0.009-0.014,0.012c-0.005,0.002-0.01,0.008-0.014,0.012
		c-0.002,0.003-0.004,0.007-0.01,0.011s-0.009,0.007-0.016,0.012c-0.004,0.004-0.007,0.009-0.011,0.011
		c-0.003,0.005-0.009,0.008-0.014,0.012c-0.005,0.004-0.009,0.008-0.012,0.011c-0.003,0.004-0.009,0.007-0.014,0.013
		c-0.003,0.003-0.009,0.006-0.012,0.011c-0.004,0.004-0.009,0.008-0.013,0.014c-0.005,0.002-0.008,0.006-0.014,0.009
		c-0.003,0.004-0.006,0.008-0.014,0.011c-0.005,0.006-0.006,0.009-0.012,0.015c-1.242,1.117-2.028,2.729-2.028,4.524
		c0,3.392,2.782,6.08,6.142,6.08c1.581,0,3.033-0.595,4.128-1.577c0.004-0.005,0.011-0.009,0.013-0.012
		c0.005-0.003,0.011-0.008,0.012-0.012c0.005-0.002,0.011-0.007,0.016-0.012c0.003-0.003,0.007-0.007,0.011-0.012
		c0.003-0.003,0.01-0.007,0.014-0.01c0.005-0.003,0.008-0.007,0.012-0.012c0.005-0.003,0.008-0.007,0.014-0.012
		c0.003-0.005,0.008-0.009,0.014-0.012c0.005-0.003,0.006-0.008,0.012-0.012c0.004-0.003,0.007-0.007,0.014-0.01
		c0.002-0.005,0.008-0.009,0.012-0.014c0.006-0.005,0.009-0.009,0.014-0.012c0.004,0,0.007-0.007,0.01-0.01
		c0.006-0.003,0.01-0.007,0.015-0.012c0.001-0.003,0.009-0.007,0.01-0.01c0.005-0.005,0.011-0.009,0.016-0.014
		c0.003-0.003,0.009-0.007,0.012-0.012c0.003-0.003,0.007-0.007,0.013-0.01c0.006-0.005,0.008-0.007,0.014-0.012
		c0.003-0.003,0.008-0.007,0.012-0.012c0.003-0.003,0.008-0.008,0.012-0.01c0.005-0.005,0.01-0.008,0.016-0.012
		c0.003-0.005,0.006-0.009,0.01-0.012c0.006-0.005,0.01-0.007,0.014-0.014c0.006-0.003,0.009-0.005,0.012-0.01
		c0.004-0.005,0.009-0.008,0.014-0.012c0.006-0.003,0.009-0.009,0.014-0.012c0.006-0.005,0.009-0.008,0.011-0.012
		c0.005-0.003,0.011-0.005,0.014-0.012c0.003-0.003,0.009-0.007,0.014-0.01c0.001-0.003,0.007-0.01,0.012-0.012
		c0.005-0.005,0.009-0.01,0.014-0.012c0.003-0.005,0.009-0.008,0.011-0.012c0.006-0.003,0.01-0.009,0.014-0.012
		c0.005-0.003,0.008-0.008,0.014-0.012c0.003-0.002,0.008-0.007,0.012-0.01c0.005-0.005,0.008-0.01,0.014-0.012
		c0.004-0.005,0.008-0.009,0.012-0.014c0.004-0.004,0.007-0.007,0.014-0.011c0.004-0.003,0.007-0.008,0.012-0.012
		c0.004-0.002,0.008-0.007,0.011-0.01c0.007-0.005,0.011-0.008,0.015-0.014c0.004-0.003,0.01-0.007,0.014-0.01
		c0.004-0.005,0.008-0.009,0.011-0.012c0.005-0.004,0.009-0.011,0.016-0.014c0.003-0.004,0.007-0.007,0.011-0.012
		c0.004-0.001,0.008-0.005,0.012-0.008c0.005-0.005,0.01-0.009,0.014-0.016c0.003-0.002,0.01-0.007,0.014-0.01
		c0.005-0.003,0.008-0.007,0.012-0.01c0.005-0.005,0.007-0.009,0.014-0.014c0.004-0.003,0.008-0.007,0.012-0.012
		c0.004-0.004,0.009-0.005,0.01-0.011c0.008-0.003,0.011-0.008,0.018-0.012c0.004-0.003,0.006-0.007,0.012-0.012
		c0.004-0.004,0.009-0.009,0.012-0.012c0.006-0.003,0.008-0.007,0.014-0.012c0.004-0.003,0.008-0.007,0.013-0.01
		c0.003-0.007,0.009-0.009,0.012-0.012c0.005-0.005,0.009-0.008,0.013-0.012c0.004-0.005,0.006-0.008,0.014-0.012
		c0.003-0.005,0.008-0.009,0.012-0.012c0.006-0.004,0.008-0.009,0.012-0.011c0.005-0.007,0.008-0.01,0.014-0.014
		c0.004-0.003,0.01-0.007,0.014-0.01c0.004-0.005,0.008-0.009,0.01-0.012c0.008-0.003,0.009-0.007,0.016-0.012
		c0.004-0.003,0.009-0.008,0.012-0.012c0.004-0.005,0.009-0.009,0.012-0.012c0.004-0.004,0.01-0.009,0.016-0.011
		c0.002-0.005,0.006-0.008,0.011-0.012c0.003-0.003,0.009-0.01,0.012-0.014c0.007-0.003,0.011-0.009,0.016-0.012
		c0.003-0.004,0.009-0.007,0.011-0.011c0.003-0.003,0.01-0.008,0.014-0.012c0.003-0.003,0.008-0.01,0.01-0.012
		c0.007-0.004,0.01-0.009,0.016-0.012c0.003-0.003,0.008-0.007,0.014-0.012c0.003-0.003,0.006-0.007,0.01-0.01
		c0.004-0.004,0.009-0.007,0.014-0.014c0.006-0.004,0.009-0.009,0.012-0.012c0.006-0.003,0.008-0.007,0.012-0.01
		c0.008-0.003,0.011-0.007,0.014-0.01c0.004-0.005,0.01-0.008,0.014-0.014c0.004-0.003,0.008-0.008,0.013-0.012
		c0.003-0.003,0.009-0.007,0.014-0.01c0.003-0.005,0.005-0.009,0.011-0.012c0.004-0.003,0.01-0.008,0.015-0.014
		c0.003-0.001,0.007-0.007,0.013-0.01c0.003-0.003,0.006-0.007,0.012-0.012c0.005-0.004,0.008-0.007,0.014-0.011
		c0.003-0.003,0.008-0.008,0.01-0.012c0.006-0.005,0.012-0.009,0.016-0.014c0.004-0.003,0.008-0.007,0.012-0.01
		s0.007-0.008,0.01-0.012c0.006-0.003,0.011-0.007,0.016-0.01c0.004-0.004,0.009-0.011,0.012-0.014
		c0.006-0.005,0.01-0.009,0.014-0.012s0.01-0.007,0.013-0.01c0.003-0.005,0.009-0.007,0.012-0.012
		c1.242-1.109,1.762-2.726,1.762-4.53C139.995,16.017,137.479,13.689,134.119,13.689 M134.119,24.682
		c-2.672,0-5.081-2.633-5.081-5.291c0-1.105,0.617-2.132,1.234-2.953c0.741-0.469,1.616-0.739,2.564-0.739
		c2.703,0,4.831,2.202,4.831,4.874c0,1.101-0.371,2.122-0.993,2.947C135.934,23.995,135.059,24.682,134.119,24.682"/>
	<polygon fill="#0F1F28" points="151.294,25.282 150.733,24.624 147.483,24.624 147.483,14.06 146.73,13.501 145.447,14.683 
		145.447,26.466 150.012,26.466 	"/>
	<polygon fill="#0F1F28" points="158.621,25.282 158.062,14.06 157.309,13.501 156.029,14.683 156.029,26.466 157.342,26.466 	"/>
	<polygon fill="#D09620" points="42.59,24.065 45.842,24.065 45.842,25.282 41.277,25.282 41.277,13.501 42.59,13.501 	"/>
	<polygon fill="#D09620" points="51.827,13.501 57.937,13.501 57.937,14.718 53.14,14.718 53.14,18.22 57.798,18.22 57.798,19.438 
		53.14,19.438 53.14,24.065 57.937,24.065 57.937,25.282 51.827,25.282 	"/>
	<polygon fill="#D09620" points="64.935,13 74.127,22.628 74.127,13.501 75.439,13.501 75.439,25.815 66.251,16.204 66.251,25.282 
		64.935,25.282 	"/>
	<path fill="#D09620" d="M82.579,13.501h2.22c1.767,0,3.203,0.234,4.595,1.42c1.345,1.158,1.954,2.735,1.954,4.486
		c0,1.719-0.627,3.234-1.924,4.392c-1.406,1.249-2.812,1.483-4.656,1.483h-2.188V13.501z M84.846,24.065
		c1.438,0,2.641-0.204,3.719-1.22c0.969-0.906,1.469-2.141,1.469-3.454c0-1.343-0.514-2.641-1.531-3.533
		c-1.078-0.952-2.265-1.141-3.656-1.141h-0.955v9.347H84.846z"/>
	<path fill="#D09620" d="M109.551,19.407c0,3.392-2.78,6.08-6.14,6.08c-3.361,0-6.144-2.688-6.144-6.08
		c0-3.374,2.782-6.111,6.144-6.111C106.771,13.296,109.551,16.033,109.551,19.407 M98.582,19.392c0,2.657,2.156,4.877,4.829,4.877
		c2.671,0,4.827-2.22,4.827-4.877c0-2.672-2.124-4.875-4.827-4.875C100.706,14.516,98.582,16.719,98.582,19.392"/>
	<path fill="#D09620" d="M117.333,25.282h-1.312V13.501h1.936c1.02,0,2.064,0.03,2.924,0.625c0.875,0.609,1.328,1.641,1.328,2.687
		c0,0.955-0.389,1.925-1.125,2.533c-0.795,0.656-1.812,0.78-2.797,0.78h-0.953V25.282z M117.333,18.908h0.875
		c1.453,0,2.688-0.439,2.688-2.126c0-1.92-1.547-2.063-3.078-2.063h-0.484V18.908z"/>
	<path fill="#D09620" d="M140.258,19.407c0,3.392-2.781,6.08-6.141,6.08c-3.361,0-6.142-2.688-6.142-6.08
		c0-3.374,2.78-6.111,6.142-6.111C137.477,13.296,140.258,16.033,140.258,19.407 M129.288,19.392c0,2.657,2.156,4.877,4.829,4.877
		c2.674,0,4.829-2.22,4.829-4.877c0-2.672-2.126-4.875-4.829-4.875C131.412,14.516,129.288,16.719,129.288,19.392"/>
	<polygon fill="#D09620" points="148.039,24.065 151.289,24.065 151.289,25.282 146.727,25.282 146.727,13.501 148.039,13.501 	"/>
	<rect x="157.308" y="13.501" fill="#D09620" width="1.312" height="11.781"/>
	<path fill="#D09620" d="M171.042,15.798c-0.469-0.813-1.031-1.282-2.031-1.282c-1.047,0-1.953,0.751-1.953,1.827
		c0,1.018,1.047,1.487,1.842,1.844l0.783,0.347c1.531,0.669,2.828,1.435,2.828,3.312c0,2.062-1.654,3.641-3.705,3.641
		c-1.888,0-3.296-1.218-3.672-3.046l1.281-0.359c0.173,1.203,1.094,2.188,2.36,2.188s2.423-0.971,2.423-2.298
		c0-1.375-1.078-1.844-2.172-2.343l-0.719-0.312c-1.377-0.627-2.562-1.329-2.562-3.016c0-1.831,1.547-3.002,3.297-3.002
		c1.312,0,2.424,0.673,3.047,1.828L171.042,15.798z"/>
</g>
</svg>
